<svg id="logo_young" xmlns="http://www.w3.org/2000/svg" width="94.717" height="30" viewBox="0 0 94.717 30">
  <g id="그룹_2" data-name="그룹 2" transform="translate(-361.1 -23.088)">
    <g id="그룹_1" data-name="그룹 1" transform="translate(361.1 23.088)">
      <path id="패스_1" data-name="패스 1" d="M434.8,24.033a11.226,11.226,0,0,0-9,0,8.873,8.873,0,0,0-3.53,2.7,7.765,7.765,0,0,0-1.5,5.069V42.277c0,.016.007.028.007.043v1.3a3.38,3.38,0,0,1-3.393,3.648,3.259,3.259,0,0,1-2.421-1.012,3.446,3.446,0,0,1-.96-2.636v-7.75a3.587,3.587,0,0,0-.833-2.422,2.829,2.829,0,0,0-2.263-.971,2.773,2.773,0,0,0-2.239.971,3.622,3.622,0,0,0-.818,2.422v8.506a8.063,8.063,0,0,0,1.5,5.069,8.915,8.915,0,0,0,3.539,2.693,11.223,11.223,0,0,0,9.005.005,8.889,8.889,0,0,0,3.53-2.7,7.766,7.766,0,0,0,1.5-5.069V41c0-.016-.007-.028-.007-.043V35.63c0-.022,0-.043,0-.065s0-.042,0-.064V32.551a3.381,3.381,0,0,1,3.393-3.648,3.256,3.256,0,0,1,2.42,1.012,3.44,3.44,0,0,1,.961,2.636v9.034a3.589,3.589,0,0,0,.833,2.423,2.831,2.831,0,0,0,2.263.97,2.773,2.773,0,0,0,2.239-.97,3.624,3.624,0,0,0,.818-2.423V31.794a8.063,8.063,0,0,0-1.5-5.069A8.912,8.912,0,0,0,434.8,24.033Z" transform="translate(-367.557 -23.088)"/>
      <path id="패스_2" data-name="패스 2" d="M467.392,37.644a2.778,2.778,0,0,0-2.432-1.427,4.925,4.925,0,0,0-.72-.038h-3.956a3.171,3.171,0,0,0-2.958,1.246,2.693,2.693,0,0,0,1.442,4.03,5.374,5.374,0,0,0,1.916.18c.31-.016.623-.023.936-.026a1.819,1.819,0,0,1-.162.489,3.39,3.39,0,0,1-3.18,2.02,4.021,4.021,0,0,1-2.345-.764c-1.387-.939-2.061-2.516-2.061-4.828,0-3.022,1.434-4.347,2.28-4.866a4.265,4.265,0,0,1,2.185-.614,4.873,4.873,0,0,1,2.488.771c.206.109.409.236.613.364a4.391,4.391,0,0,0,2.323.872,2.6,2.6,0,0,0,2.416-1.747,2.414,2.414,0,0,0,.184-.967,3.691,3.691,0,0,0-1.526-2.75,8.224,8.224,0,0,0-1.6-.923,11.8,11.8,0,0,0-4.955-1.076,10.559,10.559,0,0,0-8.486,4.133,11.505,11.505,0,0,0-2.165,6.888c0,4.528,2.254,8.39,5.881,10.081a10.568,10.568,0,0,0,4.517.962,9.222,9.222,0,0,0,9.023-6.036,10.759,10.759,0,0,0,.723-3.767A5.061,5.061,0,0,0,467.392,37.644Z" transform="translate(-373.054 -23.71)"/>
      <path id="패스_3" data-name="패스 3" d="M399.167,30.943a10.134,10.134,0,0,0-3.433-2.459,9.889,9.889,0,0,0-8.2,0,10.37,10.37,0,0,0-3.436,2.463,9.807,9.807,0,0,0-2.07,3.509,12.785,12.785,0,0,0-.692,4.2A10.715,10.715,0,0,0,384.1,46.3a10.384,10.384,0,0,0,7.58,3.353,9.893,9.893,0,0,0,4.085-.9,9.974,9.974,0,0,0,5.457-5.968,12.761,12.761,0,0,0,.669-4.143,13.036,13.036,0,0,0-.669-4.2A9.863,9.863,0,0,0,399.167,30.943Zm-3.83,10.2a5.017,5.017,0,0,1-1.51,2.006,3.635,3.635,0,0,1-2.324.777,3.326,3.326,0,0,1-2.213-.789,4.907,4.907,0,0,1-1.411-2.015,6.851,6.851,0,0,1-.472-2.476,6.531,6.531,0,0,1,1.086-3.666,3.421,3.421,0,0,1,3.01-1.652,3.66,3.66,0,0,1,2.33.778,4.915,4.915,0,0,1,1.506,2.019,6.514,6.514,0,0,1,.517,2.521A6.391,6.391,0,0,1,395.337,41.139Z" transform="translate(-363.895 -23.71)"/>
      <path id="패스_4" data-name="패스 4" d="M376.419,28.044a2.876,2.876,0,0,0-1.135-.253,3.122,3.122,0,0,0-2.676,1.679l-3.016,4.1-2.722-3.907a3.84,3.84,0,0,0-1.745-1.628,3.441,3.441,0,0,0-1.14-.216,2.791,2.791,0,0,0-2.714,1.91,3.326,3.326,0,0,0-.171.975,3.771,3.771,0,0,0,.977,2.281c.9,1.211,1.775,2.4,2.645,3.6l.59.829c.438.615.873,1.226,1.3,1.85V45.8a3.447,3.447,0,0,0,1.28,3.106,2.66,2.66,0,0,0,1.659.552,3.064,3.064,0,0,0,1.65-.514,3.54,3.54,0,0,0,1.259-3.075V39.444l4.8-6.486a4.129,4.129,0,0,0,.959-2.3A2.94,2.94,0,0,0,376.419,28.044Z" transform="translate(-361.1 -23.738)"/>
    </g>
  </g>
</svg>
